HIERARCHY
ROOT Hips
{
  OFFSET -35.4901 99.2528 17.4586
  CHANNELS 6 Xposition Yposition Zposition Zrotation Xrotation Yrotation
  JOINT LeftUpLeg
  {
    OFFSET 8.64259 1.95398 -2.38835
    CHANNELS 3 Zrotation Xrotation Yrotation
    JOINT LeftLeg
    {
      OFFSET 43.7702 0 0
      CHANNELS 3 Zrotation Xrotation Yrotation
      JOINT LeftFoot
      {
        OFFSET 40.6238 0 0
        CHANNELS 3 Zrotation Xrotation Yrotation
        JOINT LeftToeBase
        {
          OFFSET 12.7242 0 0
          CHANNELS 3 Zrotation Xrotation Yrotation
          End Site
          {
            OFFSET 0 0 0
          }
        }
      }
    }
  }
  JOINT RightUpLeg
  {
    OFFSET -8.2249 1.95398 -2.59336
    CHANNELS 3 Zrotation Xrotation Yrotation
    JOINT RightLeg
    {
      OFFSET 43.5653 0 0
      CHANNELS 3 Zrotation Xrotation Yrotation
      JOINT RightFoot
      {
        OFFSET 40.6238 0 0
        CHANNELS 3 Zrotation Xrotation Yrotation
        JOINT RightToeBase
        {
          OFFSET 12.7242 0 0
          CHANNELS 3 Zrotation Xrotation Yrotation
          End Site
          {
            OFFSET 0 0 0
          }
        }
      }
    }
  }
  JOINT Spine
  {
    OFFSET 0.165834 0.87714 6.61349
    CHANNELS 3 Zrotation Xrotation Yrotation
    JOINT Spine1
    {
      OFFSET 7.38963 1.71661e-005 0
      CHANNELS 3 Zrotation Xrotation Yrotation
      JOINT Spine2
      {
        OFFSET 11.9445 1.14441e-005 0
        CHANNELS 3 Zrotation Xrotation Yrotation
        JOINT Spine3
        {
          OFFSET 14.7254 4.19617e-005 0
          CHANNELS 3 Zrotation Xrotation Yrotation
          JOINT Spine4
          {
            OFFSET 10.9679 0 0
            CHANNELS 3 Zrotation Xrotation Yrotation
            JOINT RightShoulder
            {
              OFFSET 2.46616 -1.6653 3.69651
              CHANNELS 3 Zrotation Xrotation Yrotation
              JOINT RightArm
              {
                OFFSET 13.0012 0 0
                CHANNELS 3 Zrotation Xrotation Yrotation
                JOINT RightForeArm
                {
                  OFFSET 28.7848 1.52588e-005 0
                  CHANNELS 3 Zrotation Xrotation Yrotation
                  JOINT RightHand
                  {
                    OFFSET 26.5688 1.52588e-005 0
                    CHANNELS 3 Zrotation Xrotation Yrotation
                    End Site
                    {
                      OFFSET 0 0 0
                    }
                  }
                }
              }
            }
            JOINT LeftShoulder
            {
              OFFSET 2.38034 -1.29275 -3.7523
              CHANNELS 3 Zrotation Xrotation Yrotation
              JOINT LeftArm
              {
                OFFSET 16.3182 6.10351e-005 0
                CHANNELS 3 Zrotation Xrotation Yrotation
                JOINT LeftForeArm
                {
                  OFFSET 27.0901 0 0
                  CHANNELS 3 Zrotation Xrotation Yrotation
                  JOINT LeftHand
                  {
                    OFFSET 24.5451 1.52588e-005 0
                    CHANNELS 3 Zrotation Xrotation Yrotation
                    End Site
                    {
                      OFFSET 0 0 0
                    }
                  }
                }
              }
            }
            JOINT Neck
            {
              OFFSET 5.0226 -0.0266342 0
              CHANNELS 3 Zrotation Xrotation Yrotation
              JOINT Head
              {
                OFFSET 6.69364 2.86102e-005 0
                CHANNELS 3 Zrotation Xrotation Yrotation
                End Site
                {
                  OFFSET 0 0 0
                }
              }
            }
          }
        }
      }
    }
  }
}
MOTION
Frames:	13
Frame Time:	0.0416667
54.431 100.598 -347.69 176.476 -84.6174 173.971 174.266 -9.44839 81.6164 -2.07459 1.02354 7.98483 69.44 4.4866 -0.112759 16.3645 -1.97783 3.62891 158.994 -4.53563 75.9038 -4.12145 -21.715 4.52137 67.942 -4.01009 0.920611 26.0559 -0.341975 1.23727 0.170162 7.52162 -90.1071 11.831 0.288082 -0.244142 0.160014 0.277056 -0.256603 -22.3753 0.348143 -0.146284 -2.36267 0.348137 -0.146284 90.7948 -31.3803 -104.693 41.2738 -12.1171 -8.65077 -6.64587 -33.2341 -15.6947 -15.6111 -0.412825 -8.38918 -84.6457 -51.192 86.9209 -30.8976 4.19037 -16.0821 21.0179 58.6475 -20.4912 -27.0851 4.37473 -24.551 6.3283 -3.59499 -3.41403 -5.5612 -3.06712 6.32722 
54.4274 100.602 -347.749 -177.913 -84.9384 179.871 174.514 -8.88832 81.9852 -2.58693 0.471537 7.80287 69.7429 4.53666 -0.334627 17.9507 -3.63832 5.88687 159.438 -4.19188 76.3958 -4.25768 -21.9243 4.38054 67.9641 -4.044 0.611058 26.6155 -1.25079 3.48236 0.232887 7.50424 -90.114 11.8661 0.409494 -0.270956 0.195198 0.397178 -0.288728 -22.3404 0.471994 -0.135354 -2.32777 0.471991 -0.135363 91.4032 -31.5473 -103.451 40.8244 -13.522 -9.34057 -6.61829 -32.6155 -16.4898 -15.6497 -0.463541 -7.74221 -84.6134 -51.1639 86.9648 -30.9901 4.76198 -16.0292 18.5513 56.0656 -18.2659 -29.2887 4.74697 -24.3211 6.42341 -3.44841 -3.78694 -6.13713 -2.89394 6.71233 
54.4407 100.59 -348.05 -172.109 -85.4963 -173.516 175.453 -7.06531 83.2494 -5.10248 0.562042 7.16417 70.8386 4.65553 -0.371835 16.4617 -3.25286 5.3601 160.349 -3.48506 77.5284 -4.77007 -20.9525 4.18594 67.6132 -3.81557 1.61864 27.4482 -0.594269 1.74054 0.229764 7.47419 -90.1978 11.9259 0.36369 -0.433869 0.254891 0.344245 -0.449466 -22.2803 0.477267 -0.304509 -2.26768 0.47727 -0.304513 90.601 -31.4709 -105.031 39.8402 -14.3545 -8.98263 -6.2076 -31.2882 -17.6795 -16.0631 -0.53105 -6.70662 -84.3005 -51.9852 87.5263 -30.004 5.33559 -16.0575 16.145 50.7861 -15.8453 -24.6061 3.07005 -20.3319 6.9079 -3.38604 -3.2523 -6.68587 -2.94833 6.5825 
54.5864 100.586 -348.451 -164.671 -86.0853 -165.147 176.944 -4.55504 84.9275 -8.67636 1.16388 5.87717 72.6175 5.11921 0.112782 15.6643 -2.47381 4.29746 161.704 -2.72383 78.9925 -5.49927 -19.4976 3.6148 67.5453 -3.77069 2.30619 28.3731 -0.839898 2.30183 0.315449 7.44993 -90.3127 11.9754 0.479775 -0.675598 0.304354 0.449592 -0.696065 -22.2307 0.660639 -0.500174 -2.21803 0.660646 -0.500172 89.1556 -31.1383 -107.976 39.2875 -13.5253 -6.90319 -7.0293 -28.6748 -20.4338 -15.9948 -0.554782 -5.97745 -84.5075 -52.2645 87.2526 -29.7299 6.40501 -16.1086 11.8967 42.7463 -11.7981 -21.641 2.36026 -18.8137 6.23684 -3.0039 -2.61314 -5.37121 -2.61978 5.86616 
55.0438 100.543 -348.739 -165.513 -86.7522 -165.425 178.323 -1.86306 86.1994 -12.6688 2.04858 4.38852 74.5294 5.7704 -0.379496 15.7264 -2.75399 4.67006 163.283 -2.11556 80.2667 -6.42881 -17.8223 2.49108 67.8851 -4.02239 2.14583 28.9973 -0.456478 1.205 0.311776 7.43643 -90.3744 12.002 0.443257 -0.795098 0.330914 0.407841 -0.813833 -22.2035 0.661723 -0.625127 -2.19089 0.661721 -0.625128 88.8706 -30.8647 -108.636 39.1169 -13.0675 -5.7994 -8.9868 -28.038 -23.8296 -14.2436 -0.789008 -3.37175 -83.9652 -52.53 88.0792 -28.2737 10.9871 -15.8685 5.63742 28.2847 -8.2388 -24.6792 3.70977 -23.4722 4.73504 -2.03672 -1.83553 -3.29118 -1.71804 4.06721 
55.7042 100.364 -348.734 -164.133 -86.8844 -163.101 -179.298 0.659285 88.0827 -17.8458 4.40896 2.03869 76.7301 6.6995 -0.133921 14.8302 -2.44306 4.26381 165.439 -2.31276 81.9925 -7.40342 -15.8983 0.777582 68.6695 -4.63689 1.8823 28.8458 -0.330369 0.885969 0.412455 7.49893 -90.5538 11.8776 0.5595 -1.16435 0.206217 0.507724 -1.18786 -22.3269 0.883559 -0.942398 -2.31428 0.883556 -0.942402 88.4062 -30.6443 -109.629 38.3535 -11.2462 -4.75151 -10.2512 -27.9081 -25.3374 -13.692 -0.753821 -3.67293 -83.8102 -53.031 88.3593 -27.6748 11.9697 -16.0262 4.45403 19.0024 -7.29034 -14.6926 1.19299 -15.9302 6.30266 -3.10578 -1.21234 -5.70062 -2.97118 4.69205 
56.4548 99.6297 -348.453 -157.435 -87.2584 -155.893 -177.509 3.95127 89.3855 -23.9163 5.85355 0.067612 79.9126 7.7129 -0.23382 14.2747 -1.82939 3.4768 169.266 0.228759 83.6157 -12.7213 -12.2933 -1.35314 70.0122 -6.47837 1.05179 32.1753 -0.0631619 -0.321748 0.42988 7.54307 -90.6467 11.7892 0.551037 -1.34775 0.117655 0.491196 -1.3707 -22.4143 0.930588 -1.11988 -2.40163 0.930596 -1.11987 87.8686 -31.3869 -110.353 35.958 -11.0842 -5.46249 -7.01603 -24.1391 -22.6293 -15.9726 -0.643446 -4.21752 -84.0579 -52.7993 87.9726 -27.3764 13.1481 -15.7926 2.79018 10.828 -6.36305 -4.25886 -0.0236312 -10.6081 5.88291 -2.45933 -1.47638 -4.07862 -2.1929 3.39797 
56.9639 98.8349 -347.501 -123.929 -86.4293 -121.794 -176.117 5.87683 90.5868 -28.2627 5.21937 -1.62472 82.7381 8.23052 -0.976775 14.706 -1.98064 3.66473 175.589 9.01744 85.4354 -30.8707 0.680138 -3.64625 77.8765 -8.35279 10.505 22.4393 -0.951519 2.78778 0.433977 7.55819 -90.5936 11.7595 0.584298 -1.24494 0.0880492 0.528957 -1.26945 -22.4448 0.931426 -1.01182 -2.43215 0.931434 -1.01181 87.5058 -34.0984 -109.925 34.318 -9.4909 -5.00545 -8.09662 -20.6933 -24.9608 -15.47 -0.67154 -3.25382 -84.6023 -50.3543 86.8822 -27.9545 14.2115 -14.4229 1.27858 5.09598 -5.0924 -2.4183 -0.0919662 -9.3312 5.13467 -1.62011 -4.5105 -2.02753 -0.767376 3.55099 
57.4476 99.02 -345.759 -112.581 -84.4426 -110.559 -176.603 3.27936 89.529 -25.8865 2.38888 -1.45794 82.3626 8.01637 -0.999211 14.9735 -1.59601 3.15568 177.866 17.5468 88.4579 -40.6457 -8.07576 -3.90211 73.2465 -6.97011 2.51015 26.7912 -0.408065 1.32491 0.219696 7.68177 -90.5728 11.5098 0.169261 -1.15855 -0.161667 0.118102 -1.16489 -22.6933 0.509604 -1.05415 -2.68068 0.509609 -1.05415 88.991 -33.5396 -107.37 36.1767 -8.6053 -5.02883 -11.0647 -21.44 -28.7249 -12.6122 -0.781689 -1.63189 -84.3118 -50.5392 87.342 -26.1796 14.2876 -15.2273 1.06942 9.12543 -3.77385 -0.878535 -0.134652 -7.75281 5.9482 -0.1438 -4.50552 -2.66224 0.699379 3.16106 
57.7359 98.8406 -343.264 -105.659 -82.8878 -104.403 -177.874 0.697153 87.568 -23.6619 -1.43606 -0.808323 83.022 8.1316 -1.16381 16.2776 -1.48603 2.96951 177.889 21.5985 91.129 -33.2931 -15.384 -2.76772 69.219 -5.14738 -0.290109 29.0153 -0.589687 1.54399 -0.0400992 7.70711 -90.4559 11.4577 -0.292699 -0.878339 -0.213499 -0.331078 -0.864615 -22.7463 -0.0152082 -0.925695 -2.73365 -0.0152055 -0.925698 88.6982 -33.7533 -107.838 36.8605 -6.71679 -2.49799 -10.8178 -24.8583 -30.3364 -13.1582 -1.0828 1.03026 -84.9556 -49.2966 86.2159 -26.4287 14.9863 -16.0994 0.590759 8.06896 -2.73594 -3.0399 -0.0810158 -6.99239 5.71059 0.822099 -6.40853 -3.35761 1.96404 4.52866 
57.6061 98.3506 -339.64 -101.524 -81.5828 -100.546 -178.214 -2.6124 86.7151 -21.5431 -3.78859 -0.79735 84.4373 8.49038 -1.59065 17.5342 -2.1043 3.77997 176.731 20.4461 94.787 -14.6974 -14.5705 -0.597086 66.7708 -4.18886 -0.584263 24.7819 -0.901174 2.7431 -0.231435 7.78006 -90.3226 11.3113 -0.610876 -0.581838 -0.359637 -0.635884 -0.554398 -22.8944 -0.407769 -0.738526 -2.88177 -0.407767 -0.738534 88.6998 -34.505 -107.555 37.6832 -5.40785 -0.584023 -7.48888 -23.9253 -28.3678 -14.8066 -0.905944 -1.00432 -85.307 -48.2846 85.5394 -25.5229 14.2678 -19.4788 1.36319 8.8175 -4.02709 2.41909 -0.142046 -5.86345 6.13774 1.51476 -8.62547 -3.16215 3.09202 5.17076 
57.3627 97.3814 -334.433 -100.308 -84.2235 -98.3651 -177.66 -5.9223 88.1033 -20.9054 -1.23752 -0.147787 86.9088 9.18783 -1.96411 18.4363 -3.28624 5.41639 176.527 21.748 97.4884 -7.24807 -6.0937 0.916976 64.8587 -3.36684 -1.06325 21.3803 -0.899741 2.94611 -0.593954 7.69717 -90.484 11.4759 -1.40776 -0.818195 -0.194574 -1.4424 -0.75545 -22.7316 -1.09679 -1.20347 -2.71897 -1.09679 -1.20346 88.46 -34.6731 -107.935 38.1932 -4.19882 2.49533 -3.15817 -25.246 -23.3842 -16.6508 -0.825572 -2.68546 -85.3337 -48.5078 85.5301 -25.7499 13.501 -23.6325 2.11198 9.75535 -3.77762 2.32895 -0.129843 -5.35636 5.59617 1.3368 -8.71825 -3.709 2.87886 4.89458 
57.5998 96.2341 -325.931 -135.236 -83.5637 -132.527 -177.895 -19.1801 87.6043 -12.3611 -1.50171 1.20808 85.494 9.78624 -0.847598 22.9907 -2.74673 4.65917 176.313 21.0831 98.2758 -17.9497 -6.90676 0.88916 65.7941 -2.50536 2.29351 21.9416 -1.6062 4.52178 -0.651375 8.00758 -90.7268 10.8482 -1.63263 -1.29284 -0.822285 -1.68795 -1.21974 -23.3571 -1.16866 -1.72369 -3.3444 -1.16866 -1.7237 88.9164 -34.3812 -107.199 36.9828 -2.16127 5.60731 2.28702 -24.8541 -17.5789 -12.3758 -0.546178 -4.63451 -84.9705 -48.9594 86.1479 -27.5241 15.3682 -26.476 2.0873 9.16229 -4.9777 3.08595 -0.140632 -5.4207 5.94244 1.20464 -6.92658 -4.52697 2.41343 4.13795 
